# xmcd CD database file
#
# Track frame offsets:
#	150
#	12527
#	44209
#	60185
#	91851
#	118469
#	134765
#
# Disc length: 2499 seconds
#
# Revision: 0
# Processed by: cddbd v1.5.2PL0 Copyright (c) Steve Scherf et al.
# Submitted via: CDex 1.77
#
DISCID=6609c107
DTITLE=Que Vola - Que Vola
DYEAR=2018
DGENRE=Jazz
TTITLE0=Kabiosile (saludo a Chango)
TTITLE1=Nganga
TTITLE2=Calle Luz
TTITLE3=Que Vola ?
TTITLE4=Iyesa
TTITLE5=Fruta Bomba
TTITLE6=Resistir
EXTD=YEAR: 2018
EXTT0=
EXTT1=
EXTT2=
EXTT3=
EXTT4=
EXTT5=
EXTT6=
PLAYORDER=
